<svg id="camp" enable-background="new 0 0 300 300" height="512" viewBox="0 0 300 300" width="512" xmlns="http://www.w3.org/2000/svg"><g><circle cx="174" cy="122" fill="#edebdc" r="92"/><path d="m126 78c-2.209 0-4-1.791-4-4v-8c0-2.209 1.791-4 4-4s4 1.791 4 4v8c0 2.209-1.791 4-4 4z" fill="#4c241d"/><path d="m126 102c-2.209 0-4-1.791-4-4v-8c0-2.209 1.791-4 4-4s4 1.791 4 4v8c0 2.209-1.791 4-4 4z" fill="#4c241d"/><path d="m118 86h-8c-2.209 0-4-1.791-4-4s1.791-4 4-4h8c2.209 0 4 1.791 4 4s-1.791 4-4 4z" fill="#4c241d"/><path d="m142 86h-8c-2.209 0-4-1.791-4-4s1.791-4 4-4h8c2.209 0 4 1.791 4 4s-1.791 4-4 4z" fill="#4c241d"/><path d="m68 70c-7.719 0-14-6.281-14-14s6.281-14 14-14 14 6.281 14 14-6.281 14-14 14zm0-20c-3.309 0-6 2.691-6 6s2.691 6 6 6 6-2.691 6-6-2.691-6-6-6z" fill="#4c241d"/><circle cx="106.828" cy="47.453" fill="#4c241d" r="4.276"/><path d="m234 270h-168c-19.882 0-36-16.118-36-36v-8h240v8c0 19.882-16.118 36-36 36z" fill="#ffded5"/><g><path d="m174 226v-192" fill="#77a052"/><path d="m174 230c-2.209 0-4-1.791-4-4v-192c0-2.209 1.791-4 4-4s4 1.791 4 4v192c0 2.209-1.791 4-4 4z" fill="#4c241d"/></g><g><path d="m90 126-52 100h104z" fill="#77a052"/><path d="m142 230h-104c-1.398 0-2.693-.729-3.42-1.924-.725-1.195-.773-2.682-.129-3.922l52-100c1.375-2.648 5.723-2.648 7.098 0l52 100c.645 1.24.596 2.727-.129 3.922-.727 1.195-2.022 1.924-3.42 1.924zm-97.412-8h90.824l-45.412-87.33z" fill="#4c241d"/></g><g><path d="m90 158-24 68h48z" fill="#6b4f5b"/><path d="m114 230h-48c-1.299 0-2.516-.631-3.266-1.689-.75-1.061-.938-2.418-.506-3.643l24-68c.565-1.598 2.077-2.668 3.772-2.668s3.207 1.07 3.771 2.668l24 68c.432 1.225.244 2.582-.506 3.643-.749 1.058-1.966 1.689-3.265 1.689zm-42.346-8h36.691l-18.345-51.982z" fill="#4c241d"/></g><g><path d="m90 114v48" fill="#77a052"/><path d="m90 166c-2.209 0-4-1.791-4-4v-48c0-2.209 1.791-4 4-4s4 1.791 4 4v48c0 2.209-1.791 4-4 4z" fill="#4c241d"/></g><g><path d="m150 226h-8" fill="#77a052"/><path d="m150 230h-8c-2.209 0-4-1.791-4-4s1.791-4 4-4h8c2.209 0 4 1.791 4 4s-1.791 4-4 4z" fill="#4c241d"/></g><g><path d="m30 226h8" fill="#77a052"/><path d="m38 230h-8c-2.209 0-4-1.791-4-4s1.791-4 4-4h8c2.209 0 4 1.791 4 4s-1.791 4-4 4z" fill="#4c241d"/></g><g><path d="m150 138-52 88h104z" fill="#77a052"/><path d="m202 230h-104c-1.436 0-2.762-.77-3.475-2.018-.711-1.248-.699-2.781.031-4.018l52-88c1.438-2.434 5.449-2.434 6.887 0l52 88c.73 1.236.742 2.77.031 4.018-.712 1.248-2.038 2.018-3.474 2.018zm-96.99-8h89.98l-44.99-76.137z" fill="#4c241d"/></g><g><path d="m150 170-24 56h48z" fill="#6b4f5b"/><path d="m174 230h-48c-1.344 0-2.6-.676-3.34-1.799-.74-1.121-.867-2.541-.336-3.777l24-56c.629-1.471 2.076-2.424 3.676-2.424s3.047.953 3.676 2.424l24 56c.531 1.236.404 2.656-.336 3.777-.74 1.123-1.996 1.799-3.34 1.799zm-41.934-8h35.867l-17.933-41.846z" fill="#4c241d"/></g><g><path d="m150 126v48" fill="#77a052"/><path d="m150 178c-2.209 0-4-1.791-4-4v-48c0-2.209 1.791-4 4-4s4 1.791 4 4v48c0 2.209-1.791 4-4 4z" fill="#4c241d"/></g><g><path d="m210 226h-8" fill="#77a052"/><path d="m210 230h-8c-2.209 0-4-1.791-4-4s1.791-4 4-4h8c2.209 0 4 1.791 4 4s-1.791 4-4 4z" fill="#4c241d"/></g><g><path d="m90 226h8" fill="#77a052"/><path d="m98 230h-8c-2.209 0-4-1.791-4-4s1.791-4 4-4h8c2.209 0 4 1.791 4 4s-1.791 4-4 4z" fill="#4c241d"/></g><g><path d="m210 114-52 112h104z" fill="#77a052"/><path d="m262 230h-104c-1.365 0-2.637-.697-3.371-1.848-.736-1.152-.832-2.598-.258-3.836l52-112c.656-1.412 2.072-2.316 3.629-2.316s2.973.904 3.629 2.316l52 112c.574 1.238.479 2.684-.258 3.836-.734 1.151-2.006 1.848-3.371 1.848zm-97.732-8h91.465l-45.733-98.502z" fill="#4c241d"/></g><g><path d="m210 146-24 80h48z" fill="#6b4f5b"/><path d="m234 230h-48c-1.264 0-2.455-.598-3.209-1.611-.756-1.016-.986-2.326-.623-3.537l24-80c.508-1.693 2.066-2.852 3.832-2.852s3.324 1.158 3.832 2.852l24 80c.363 1.211.133 2.521-.623 3.537-.754 1.013-1.945 1.611-3.209 1.611zm-42.623-8h37.246l-18.623-62.08z" fill="#4c241d"/></g><g><path d="m210 102v48" fill="#77a052"/><path d="m210 154c-2.209 0-4-1.791-4-4v-48c0-2.209 1.791-4 4-4s4 1.791 4 4v48c0 2.209-1.791 4-4 4z" fill="#4c241d"/></g><g><path d="m270 226h-8" fill="#77a052"/><path d="m270 230h-8c-2.209 0-4-1.791-4-4s1.791-4 4-4h8c2.209 0 4 1.791 4 4s-1.791 4-4 4z" fill="#4c241d"/></g><g><path d="m150 226h8" fill="#77a052"/><path d="m158 230h-8c-2.209 0-4-1.791-4-4s1.791-4 4-4h8c2.209 0 4 1.791 4 4s-1.791 4-4 4z" fill="#4c241d"/></g><g fill="#bf7e68"><circle cx="62.828" cy="239.453" r="4.276"/><circle cx="94.828" cy="259.453" r="4.276"/><circle cx="122.828" cy="239.453" r="4.276"/><circle cx="138.828" cy="255.453" r="4.276"/><circle cx="174.828" cy="243.453" r="4.276"/><circle cx="202.828" cy="259.453" r="4.276"/><circle cx="210.828" cy="247.453" r="4.276"/><circle cx="246.828" cy="243.453" r="4.276"/></g><g><path d="m174 42h36v32h-36z" fill="#fff"/><path d="m210 78h-36c-2.209 0-4-1.791-4-4v-32c0-2.209 1.791-4 4-4h36c2.209 0 4 1.791 4 4v32c0 2.209-1.791 4-4 4zm-32-8h28v-24h-28z" fill="#4c241d"/></g><g><path d="m194 50h36v32h-36z" fill="#fff"/><path d="m230 86h-36c-2.209 0-4-1.791-4-4v-32c0-2.209 1.791-4 4-4h36c2.209 0 4 1.791 4 4v32c0 2.209-1.791 4-4 4zm-32-8h28v-24h-28z" fill="#4c241d"/></g></g></svg>