<?xml version="1.0" encoding="UTF-8" standalone="no"?>
<svg
   version="1.1"
   width="512"
   height="512"
   x="0"
   y="0"
   viewBox="0 0 512 512"
   style="enable-background:new 0 0 512 512"
   xml:space="preserve"
   class=""
   id="svg126"
   sodipodi:docname="gamer.svg"
   inkscape:version="1.1 (1:1.1+202105261517+ce6663b3b7)"
   xmlns:inkscape="http://www.inkscape.org/namespaces/inkscape"
   xmlns:sodipodi="http://sodipodi.sourceforge.net/DTD/sodipodi-0.dtd"
   xmlns="http://www.w3.org/2000/svg"
   xmlns:svg="http://www.w3.org/2000/svg"><defs
     id="defs130" /><sodipodi:namedview
     id="namedview128"
     pagecolor="#505050"
     bordercolor="#eeeeee"
     borderopacity="1"
     inkscape:pageshadow="0"
     inkscape:pageopacity="0"
     inkscape:pagecheckerboard="0"
     showgrid="false"
     inkscape:zoom="1.2029102"
     inkscape:cx="191.61863"
     inkscape:cy="312.15964"
     inkscape:window-width="1916"
     inkscape:window-height="1048"
     inkscape:window-x="1920"
     inkscape:window-y="14"
     inkscape:window-maximized="1"
     inkscape:current-layer="svg126" /><g
     transform="matrix(0.9199999999999999,0,0,0.92,20.479938735961923,20.480039062499912)"
     id="g124"><g
       id="g122"><g
         id="g24"><path
           d="m503.443 91.06-35.989-62.301c-7.508-5.972-15.913-10.8-24.979-14.38h-61.467l-42.61 32.084v157.041h68.098c23.041 0 44.224-7.952 60.956-21.259l35.989-62.302c.696-4.713 1.056-9.535 1.056-14.441.003-4.907-.358-9.729-1.054-14.442z"
           fill="#efedff"
           data-original="#efedff"
           style=""
           class=""
           id="path2" /><path
           d="m503.438 119.942c-1.346-.24-2.761-.015-3.994.695l-25.392 14.629c-4.951 2.852-8.002 8.131-8.002 13.845v29.311c0 1.427.515 2.77 1.4 3.818 19.011-15.119 32.274-37.152 35.988-62.298z"
           fill="#676fb2"
           data-original="#676fb2"
           style=""
           class=""
           id="path4" /><path
           d="m466.05 61.892c0 5.714 3.051 10.993 8.002 13.845l25.392 14.629c.917.529 1.936.79 2.953.79.349 0 .697-.034 1.041-.096-3.714-25.145-16.977-47.178-35.988-62.298-.885 1.048-1.4 2.391-1.4 3.818z"
           fill="#676fb2"
           data-original="#676fb2"
           style=""
           class=""
           id="path6" /><g
           id="g22"><path
             d="m388.189 14.381h-17.832c-9.112 3.617-17.552 8.564-25.085 14.598l-35.69 61.907c-.814 5.448-1.18 11.043-1.059 16.746l48.741 21.238c-1.264-6.888-1.846-13.985-1.846-21.238 0-31.106 12.414-60.416 32.771-81.433z"
             fill="#d4d4ff"
             data-original="#d4d4ff"
             style=""
             id="path8" /><path
             d="m345.271 28.98c-18.821 15.078-31.959 36.954-35.69 61.907 2.621 0 5.193-.716 7.437-2.071l21.664-13.078c4.892-2.953 8.002-8.131 8.002-13.845v-29.08c0-1.433-.52-2.785-1.413-3.833z"
             fill="#4c5699"
             data-original="#4c5699"
             style=""
             class=""
             id="path10" /><g
             id="g14"><path
               d="m436.993 78.628-22.648-13.049c-4.937-2.844-11.016-2.844-15.953 0l-22.648 13.049c-4.951 2.851-8.002 8.131-8.002 13.844v26.06c0 5.714 3.051 10.993 8.002 13.845l20.337 11.717c3.129 1.803 6.676 2.752 10.287 2.752s7.159-.949 10.288-2.752l20.336-11.717c4.951-2.852 8.002-8.132 8.002-13.846v-26.059c.001-5.713-3.051-10.993-8.001-13.844z"
               fill="#676fb2"
               data-original="#676fb2"
               style=""
               class=""
               id="path12" /></g><g
             id="g20"><path
               d="m411.976 7.663-23.787 6.719v11.818l7.891 4.615c6.368 3.668 14.208 3.668 20.575 0l23.208-13.372c1.239-.714 2.148-1.77 2.613-3.064-9.534-3.764-19.776-6.114-30.5-6.716z"
               fill="#676fb2"
               data-original="#676fb2"
               style=""
               class=""
               id="path16" /><path
               d="m411.976 7.663c-1.823-.101-3.63-.163-5.478-.163-12.764 0-24.958 2.442-36.141 6.881.466 1.289 1.374 2.405 2.609 3.116l15.223 8.703c7.106-7.188 14.97-13.456 23.787-18.537z"
               fill="#4c5699"
               data-original="#4c5699"
               style=""
               class=""
               id="path18" /></g></g></g><g
         id="g88"><g
           id="g54"><g
             id="g30"><path
               d="m256 321.969v86.059c41.438 0 82.876-4.223 123.666-12.667l.001-.001c12.369-2.561 21.239-13.455 21.239-26.086v-116.367z"
               fill="#976632"
               data-original="#ffdbe0"
               style=""
               class=""
               id="path26" /><path
               d="m111.094 252.907v116.366c0 12.631 8.87 23.525 21.239 26.086l.001.001c40.79 8.444 82.228 12.667 123.666 12.667v-86.059z"
               fill="#623d16"
               data-original="#ffb5c0"
               style=""
               class=""
               id="path28" /></g><g
             id="g38"><path
               d="m271.384 362.52h-24.316l-37.773 37.773v70.679h46.705 46.705 30.795v-31.82c0-37.671-26.91-69.448-62.116-76.632z"
               fill="#623d16"
               data-original="#ffb5c0"
               style="fill:#3c6f16;fill-opacity:1"
               class=""
               id="path32" /><path
               d="m255.999 360.972c-13.731 0-26.656 3.646-37.852 9.993-23.259 13.185-39.647 38.824-39.647 68.187v31.82h30.795v-31.82c0-37.735 26.725-69.405 62.089-76.632-4.974-1.016-10.119-1.548-15.385-1.548z"
               fill="#32200d"
               data-original="#ff8e9e"
               style="fill:#17490d;fill-opacity:1"
               class=""
               id="path34" /><path
               d="m256 340.963-37.853 30.002c4.324 26.657 21.078 39.994 37.853 39.998 16.773.004 33.548-13.325 37.875-40.001z"
               fill="#c8866a"
               data-original="#c8866a"
               style=""
               class=""
               id="path36" /></g><g
             id="g52"><g
               id="g44"><path
                 d="m312.038 482.214-8.889-33.173c-2.53-9.444-12.237-15.048-21.681-12.517-2.922.783-5.475 2.511-7.534 4.447h-18.319l-29.915 23.659 29.915 23.915h21.466l.759 2.832c2.144 8 9.436 13.122 17.357 13.122 9.341 0 17.418-8.356 17.418-17.763 0-1.488-.171-3.006-.577-4.522z"
                 fill="#676fb2"
                 data-original="#676fb2"
                 style=""
                 class=""
                 id="path40" /><path
                 d="m255.615 440.972h-18.289c-2.06-1.937-4.613-3.665-7.535-4.447-9.444-2.53-19.15 3.074-21.681 12.517l-8.889 33.173c-2.972 11.093 5.337 22.286 16.795 22.286 7.94 0 15.256-5.107 17.404-13.122l.759-2.832h21.435c-13.207-13.21-13.207-34.367.001-47.575z"
                 fill="#4c5699"
                 data-original="#4c5699"
                 style=""
                 class=""
                 id="path42" /></g><g
               id="g50"><circle
                 cx="190"
                 cy="471.952"
                 fill="#c8866a"
                 r="22.5"
                 data-original="#c8866a"
                 style=""
                 class=""
                 id="circle46" /><circle
                 cx="322"
                 cy="471.952"
                 fill="#db9e82"
                 r="22.5"
                 data-original="#db9e82"
                 style=""
                 class=""
                 id="circle48" /></g></g></g><g
           id="g86"><g
             id="g74"><g
               id="g66"><path
                 d="m411 195.972c-4.824 0-9.42.977-13.602 2.741-12.573 5.308-21.398 17.753-21.398 32.259 0 19.33 15.67 35 35 35s35-15.67 35-35-15.67-35-35-35z"
                 fill="#c8866a"
                 data-original="#c8866a"
                 style=""
                 class=""
                 id="path56" /><path
                 d="m280.147 87.985h-44.295l-124.852 142.987 124.853 142.987h44.295c4.655-.78 9.234-1.784 13.728-2.997 61.711-16.655 107.124-73.014 107.124-139.99 0-11.088-1.245-21.885-3.602-32.259-12.918-56.853-59.248-101.004-117.251-110.728z"
                 fill="#db9e82"
                 data-original="#db9e82"
                 style=""
                 class=""
                 id="path58" /><g
                 fill="#c8866a"
                 id="g64"><path
                   d="m159.099 231.173c0-71.98 52.361-131.723 121.049-143.189-7.854-1.317-15.919-2.013-24.148-2.013-79.893 0-145 64.76-145 145 0 67.137 45.554 123.362 107.147 139.993 12.076 3.261 24.766 5.007 37.853 5.007 8.228 0 16.293-.696 24.148-2.013-68.688-11.465-121.049-70.806-121.049-142.785z"
                   fill="#c8866a"
                   data-original="#c8866a"
                   style=""
                   class=""
                   id="path60" /><path
                   d="m66 230.972c0 19.33 15.67 35 35 35v-70c-19.33 0-35 15.67-35 35z"
                   fill="#c8866a"
                   data-original="#c8866a"
                   style=""
                   class=""
                   id="path62" /></g></g><g
               fill="#ffdbe0"
               id="g72"><ellipse
                 cx="177"
                 cy="278.599"
                 rx="29"
                 ry="23"
                 fill="#976632"
                 data-original="#ffdbe0"
                 style="fill:#b15323;fill-opacity:0.62059259"
                 class=""
                 id="ellipse68" /><ellipse
                 cx="335"
                 cy="278.599"
                 rx="29"
                 ry="23"
                 fill="#976632"
                 data-original="#ffdbe0"
                 style="fill:#b15323;fill-opacity:0.62059259"
                 class=""
                 id="ellipse70" /></g></g><g
             id="g78"><path
               d="m403.792 165.938c-6.174-13.417-14.852-28.758-24.573-40.136-12.6-14.747-27.611-26.983-44.25-36.277-4.216-2.355-8.86-3.828-13.449-3.746-6.681.12-13.248 3.125-18.22 8.096l-7.58 27.579 18.567 19.782c13.476 4.801 24.008 12.738 30.796 26.224 8.514 17.028 26.542 31.253 46.424 31.253h5.891c8.962-8.41 11.532-21.61 6.394-32.775z"
               fill="#976632"
               data-original="#ffdbe0"
               style=""
               class=""
               id="path76" /></g><g
             id="g84"><path
               d="m287.941 80.145h-53.093l-120.835 120.694 45.912 45.912c18.607-35.698 55.821-59.094 97.427-59.094 32.429 0 58.119-26.354 58.119-58.119 0-19.705-10.42-38.614-27.53-49.393z"
               fill="#976632"
               data-original="#ffdbe0"
               style=""
               class=""
               id="path80" /><path
               d="m256 70.972c-88.286 0-160 71.631-160 160 0 33.956 10.82 66.971 30.684 94.223 2.975 4.08 9.377 2.811 10.635-2.08l13.611-52.936c2.127-8.273 5.176-16.098 8.996-23.428-.545-5.112-.826-10.316-.826-15.578 0-68.605 47.567-126.095 111.5-141.262 6.41-1.521 12.683-5.108 17.341-9.767-8.978-5.655-19.662-9.172-31.941-9.172z"
               fill="#623d16"
               data-original="#ffb5c0"
               style=""
               class=""
               id="path82" /></g></g></g><g
         id="g106"><g
           id="g98"><path
             d="m41.377 19.505c-5.253-5.253-13.623-5.399-18.695-.327l-7.125 7.125c-7.233 7.233-7.233 18.961 0 26.194l10 10h29.406v-29.406z"
             fill="#676fb2"
             data-original="#676fb2"
             style=""
             class=""
             id="path90" /><g
             id="g96"><path
               d="m136.193 14.902c-9.87-9.87-25.874-9.87-35.745-.001l-6.815 6.815c-9.241 9.241-25.15 11.374-33.407 11.374h-5.264v56.724h40.893l33.384-33.384c8.448-8.448 14.709-18.827 18.242-30.24z"
               fill="#676fb2"
               data-original="#676fb2"
               style=""
               class=""
               id="path92" /><path
               d="m54.963 33.091-29.407 29.406-12.19 12.19c-3.784 3.784-5.939 8.929-5.865 14.28.443 31.767 26.92 49.985 38.837 50.363l35.273-35.272v-21.212c-16.074-10.722-26.648-29.013-26.648-49.755z"
               fill="#4c5699"
               data-original="#4c5699"
               style=""
               class=""
               id="path94" /></g></g><g
           id="g104"><path
             d="m151.915 11.861c-7.906-2.446-16.313 1.979-18.764 9.895-2.8 9.047-7.821 17.369-14.52 24.068l-37.019 37.022v10.023h32.401l25.832-25.832c10.134-10.134 17.729-22.725 21.965-36.412 2.449-7.914-1.981-16.314-9.895-18.764z"
             fill="#efedff"
             data-original="#efedff"
             style=""
             class=""
             id="path100" /><path
             d="m81.612 82.846-45.88 45.879c-5.858 5.857-5.858 15.355 0 21.213 2.929 2.929 6.768 4.394 10.606 4.394s7.678-1.465 10.606-4.394l57.068-57.068c-12.043-.001-23.11-3.827-32.4-10.024z"
             fill="#d4d4ff"
             data-original="#d4d4ff"
             style=""
             id="path102" /></g></g><g
         id="g120"><path
           d="m190.431 46.777c.324 0 .652-.021.982-.064 3.219-.421 6.47-.785 9.662-1.083 4.124-.385 7.155-4.041 6.771-8.165-.386-4.124-4.045-7.153-8.165-6.771-3.375.315-6.811.7-10.213 1.146-4.106.537-7.001 4.302-6.464 8.409.495 3.777 3.718 6.528 7.427 6.528z"
           fill="#000000"
           data-original="#000000"
           style=""
           class=""
           id="path108" /><path
           d="m145.149 72.341c0-.001 0-.001 0 0 10.992-10.994 19.23-24.651 23.826-39.498 5.828-18.84-13.933-35.769-31.708-26.687-5.697-4.001-12.282-6.156-19.068-6.156-10.638 0-17.904 4.336-25.215 11.788-7.512 7.665-13.042 13.292-34.95 13.767l-11.354-11.354c-8.17-8.168-21.313-8.313-29.303-.327l-7.125 7.125c-10.146 10.146-10.146 26.655 0 36.802l4.696 4.696-6.887 6.887c-5.223 5.224-8.161 12.399-8.06 19.688.358 25.785 15.247 41.271 23.959 48.138-.621 6.579 1.665 13.23 6.466 18.03 8.789 8.793 23.021 8.796 31.82.001zm-124.289-40.735 7.125-7.125c2.14-2.141 5.77-1.993 8.088.327l8.282 8.282-18.799 18.8-4.696-4.696c-4.298-4.298-4.298-11.291 0-15.588zm-5.859 57.257c-.045-3.262 1.292-6.496 3.669-8.872l12.188-12.188c.001-.001.002-.002.003-.003s.002-.002.003-.003l27.238-27.239c46.788-.973 40.945-25.558 60.102-25.558 3.02 0 5.934.779 8.628 2.277-1.242 2.872-3.465 13.203-13.503 23.243l-82.707 82.706c-6.596-5.964-15.381-17.121-15.621-34.363zm26.033 55.77c-2.955-2.955-2.868-7.738.002-10.604l82.9-82.901c7.557-7.559 13.221-16.948 16.381-27.154 1.123-3.632 5.028-6.223 9.196-4.992 3.688 1.089 6.531 4.913 5.132 9.427-3.877 12.527-10.828 24.051-20.104 33.327v-.001l-82.899 82.9c-2.924 2.924-7.668 2.938-10.608-.002z"
           fill="#000000"
           data-original="#000000"
           style=""
           class=""
           id="path110" /><path
           d="m512 105.502c0-58.174-47.328-105.502-105.502-105.502-23.163 0-45.86 7.807-64.358 22.036-15.338-6.1-38.406-14.289-69.135-18.987-4.087-.615-7.921 2.186-8.548 6.28-.626 4.095 2.186 7.922 6.28 8.548 24.739 3.783 43.676 9.737 58.918 15.459-3.632 3.855-6.961 7.963-9.957 12.292-28.677-10.187-58.63-15.617-89.234-16.119-4.113-.051-7.554 3.234-7.622 7.376-.067 4.142 3.234 7.554 7.376 7.622 27.996.459 55.415 5.279 81.724 14.304-3.789 7.65-6.67 15.76-8.504 24.181-12.482-12.489-29.342-19.52-47.438-19.52-32.115 0-63.327 9.13-90.262 26.402-3.486 2.236-4.501 6.875-2.265 10.362s6.876 4.5 10.362 2.265c24.513-15.72 52.925-24.029 82.164-24.029 16.354 0 31.409 7.359 41.303 20.19 3.071 3.981 9.059 3.852 11.989-.146 6.159-5.688 13.919-6.967 22.02-2.443 29.859 16.68 50.111 39.193 65.668 73.002 3.432 7.455 2.172 16.014-2.819 22.138h-2.652c-15.404 0-31.736-11.146-39.725-27.125-6.317-12.55-15.902-21.617-29.193-27.584.539-5.116.515-10.392-.231-15.871-.56-4.104-4.343-6.979-8.444-6.419-4.104.56-6.978 4.34-6.419 8.444 4.226 30.942-20.113 57.499-50.144 57.499-53.953 0-100.388 36.442-113.688 88.154-6.683 25.992-10.071 52.778-10.071 79.614 0 4.143 3.357 7.5 7.5 7.5s7.5-3.357 7.5-7.5c0-2.868.047-5.735.128-8.601 15.252 15.089 33.328 26.583 52.894 34.053-7.641 6.43-14.059 14.109-19.008 22.65-16.33-2.006-32.714-4.692-48.754-8.014-8.842-1.83-15.26-9.712-15.26-18.741v-63.152c0-5.592-1.139-11.165-3.385-16.565-23.861-57.363-10.992-124.965 36.131-169.464 3.012-2.844 3.147-7.591.304-10.603-2.846-3.013-7.592-3.147-10.603-.304-23.129 21.843-39.376 49.378-47.233 79.906-20.207 3.396-35.307 20.79-35.307 41.882 0 21.108 15.114 38.504 35.339 41.886 1.978 7.646 4.493 15.181 7.52 22.458 1.482 3.565 2.234 7.2 2.234 10.805v63.153c0 16.105 11.447 30.165 27.22 33.432 14.875 3.079 30.039 5.628 45.186 7.608-3.253 9.127-4.999 18.862-4.999 28.838v9.619c-13.666 11.135-14.837 31.77-2.214 44.395 6.91 6.909 16.974 10.13 26.952 8.195 4.592 6.556 12.069 10.64 20.28 10.64 10.583 0 19.97-6.434 23.746-15.955h31.733c3.772 9.521 13.142 15.955 23.7 15.955 8.016 0 15.558-4.202 20.214-10.783 10.195 2.312 20.596-.846 27.802-8.052 12.623-12.621 11.457-33.257-2.213-44.395v-9.619c0-9.969-1.753-19.706-5.019-28.841 15.159-1.98 30.323-4.525 45.206-7.606 15.771-3.266 27.219-17.325 27.219-33.431v-8.398c0-4.143-3.357-7.5-7.5-7.5s-7.5 3.357-7.5 7.5v8.398c0 9.029-6.418 16.911-15.261 18.742-16.053 3.324-32.439 6.011-48.783 8.018-4.931-8.497-11.318-16.147-18.916-22.57 37.555-14.302 66.472-42.237 82.959-76.338v33.75c0 4.143 3.357 7.5 7.5 7.5s7.5-3.357 7.5-7.5v-57.473c.86.053 1.721.088 2.582.088 23.159 0 42.512-18.807 42.512-42.519 0-9.938-3.455-19.369-9.569-26.849 41.743-15.893 68.07-55.611 68.07-98.621zm-438.5 125.47c0-11.499 6.939-21.297 16.944-25.412-1.281 8.396-1.944 16.903-1.944 25.412 0 8.493.669 17.003 1.962 25.42-10.015-4.109-16.962-13.911-16.962-25.42zm127.106 251.586c-5.767 5.771-15.341 5.872-21.214 0-6.864-6.864-5.54-18.416 2.948-23.477 5.855-3.49 13.287-2.602 18.14 2.14.095.106.191.211.29.313 5.657 5.846 5.583 15.278-.164 21.024zm84.479 6.88-.759-2.833c-.879-3.279-3.851-5.56-7.245-5.56h-42.901c-3.395 0-6.366 2.28-7.245 5.56l-.758 2.832c-1.879 7.013-10.912 10.095-16.508 5.143 11.857-10.267 13.479-27.832 4.685-40.109.025-.086.979-3.399 1.002-3.486 1.811-6.755 10.405-10.591 16.833-4.548 1.391 1.308 3.229 2.036 5.138 2.036h36.608c1.909 0 3.746-.728 5.138-2.036 6.453-6.065 15.031-2.18 16.834 4.547l1.161 4.333c-7.96 11.888-6.612 28.443 4.741 38.794-6.082 5.865-14.929 2.03-16.724-4.673zm44.574-30.358c8.509 5.074 9.798 16.629 2.947 23.478-5.916 5.915-15.407 5.812-21.213 0-5.625-5.624-5.863-14.671-.532-20.609 4.65-5.289 12.567-6.581 18.798-2.869zm-3.659-16.839c-5.581-.757-11.272.08-16.412 2.416-5.709-14.92-24.372-21.682-38.371-11.186h-31.173c-13.844-10.375-32.4-3.896-38.266 10.912-4.973-2.122-10.425-2.867-15.778-2.142 0-26.6 10.62-46.055 27.355-59.076 7.775 24.277 26.166 35.293 42.643 35.297h.009c16.477 0 34.866-11.004 42.646-35.266 16.933 13.23 27.347 32.746 27.347 59.045zm-97.581-61.335c9.125 1.688 18.42 2.563 27.778 2.563 9.107 0 18.27-.839 27.38-2.507-6.058 16.382-17.976 22.501-27.571 22.501-.001 0-.004 0-.005 0-9.6-.002-21.53-6.138-27.582-22.557zm63.496-17.175c-51.973 14.03-107.61-3.706-141.896-45.18 1.519-15.679 4.248-31.236 8.174-46.506 11.563-44.98 51.983-76.889 99.159-76.889 27.951 0 52.666-17.896 61.838-43.653 8.687 4.485 14.877 10.751 19.186 19.31 8.781 17.563 28.528 35.28 52.897 35.395 12.893 70.301-29.802 138.752-99.358 157.523zm181.636-318.948c8.538 9.42 15.119 20.642 19.107 33.017l-14.861-8.562c-2.619-1.509-4.246-4.324-4.246-7.347zm-67.053-29.783c6.539 0 12.916.703 19.064 2.027l-12.65 7.288c-4.037 2.326-9.053 2.326-13.088 0l-12.593-7.256c6.222-1.34 12.667-2.059 19.267-2.059zm-67.314 46.892c0 2.994-1.637 5.769-4.378 7.424l-14.578 8.801c3.944-12.545 10.488-23.796 18.956-33.21zm60.641 75.703c-1.134-.653-2.367-.976-3.588-1-6.294-9.649-13.271-18.319-21.034-26.124.026-.253.039-.51.039-.77v-17.229c0-3.022 1.627-5.837 4.246-7.346l22.648-13.049c2.609-1.504 5.854-1.503 8.465-.001l22.647 13.051c2.619 1.508 4.245 4.322 4.245 7.345v26.059c0 3.023-1.627 5.839-4.246 7.348l-20.336 11.717c-3.971 2.288-9.112 2.288-13.086-.001zm6.305 120.467c3.208-17.737 3.242-36.033-.025-54.148 16.126-2.917 32.395 9.159 32.395 27.059 0 17.945-16.424 30.054-32.37 27.089zm52.421-108.951v30.531c-8.507 5.945-18.16 10.48-28.662 13.273-5.531-2.754-11.529-4.244-17.585-4.435 2.612-8.476 2.045-17.548-1.698-25.678-1.331-2.893-2.705-5.708-4.116-8.463 4.877-.021 9.685-1.314 13.911-3.749l20.336-11.716c7.253-4.179 11.758-11.975 11.758-20.346v-26.056c0-8.37-4.505-16.165-11.757-20.342l-22.648-13.051c-7.23-4.164-16.212-4.165-23.44.001l-22.647 13.049c-7.253 4.177-11.759 11.972-11.759 20.343v4.771c-6.311-4.904-13.063-9.394-20.293-13.511l2.61-1.575c7.28-4.396 11.626-11.971 11.626-20.266v-30.33c4.412-3.117 9.113-5.841 14.049-8.135l24.103 13.888c8.658 4.986 19.407 4.984 28.063 0l24.15-13.913c4.922 2.29 9.606 5.007 14.001 8.108v30.383c0 8.37 4.505 16.166 11.758 20.345l26.325 15.165c.479 5.38.499 10.651-.002 16.292-.879.357.948-.638-26.322 15.074-7.257 4.178-11.761 11.973-11.761 20.343zm15 0c0-3.022 1.627-5.837 4.246-7.346l14.919-8.596c-3.956 12.443-10.527 23.759-19.166 33.26v-17.318z"
           fill="#000000"
           data-original="#000000"
           style=""
           class=""
           id="path112" /><path
           d="m193.551 236.972c-4.143 0-7.5 3.357-7.5 7.5v12c0 4.143 3.357 7.5 7.5 7.5s7.5-3.357 7.5-7.5v-12c0-4.143-3.358-7.5-7.5-7.5z"
           fill="#000000"
           data-original="#000000"
           style=""
           class=""
           id="path114" /><path
           d="m318.448 236.972c-4.143 0-7.5 3.357-7.5 7.5v12c0 4.143 3.357 7.5 7.5 7.5s7.5-3.357 7.5-7.5v-12c0-4.143-3.357-7.5-7.5-7.5z"
           fill="#000000"
           data-original="#000000"
           style=""
           class=""
           id="path116" /><path
           d="m277.39 250.46c-3.123-2.722-7.86-2.397-10.581.728-5.726 6.569-15.898 6.563-21.619 0-2.721-3.124-7.459-3.448-10.581-.728-3.123 2.721-3.449 7.459-.728 10.581 11.702 13.431 32.545 13.419 44.236 0 2.723-3.122 2.396-7.86-.727-10.581z"
           fill="#000000"
           data-original="#000000"
           style=""
           class=""
           id="path118" /></g></g></g></svg>
