<svg id="line" height="512" viewBox="0 0 64 64" width="512" xmlns="http://www.w3.org/2000/svg"><path d="m59.5 51.142v-14.142a1.2 1.2 0 0 0 -.61-.921l-21.976-9.989a1 1 0 0 0 -.828 0l-22 10a1 1 0 0 0 0 1.82l22 10a1 1 0 0 0 .828 0l20.586-9.357v12.589a4 4 0 0 0 -3 3.858v4a4 4 0 0 0 8 0v-4a4 4 0 0 0 -3-3.858z" fill="#c4a2fc"/><path d="m35.257 49.73-14.757-6.708v4.978c0 5.607 7.028 10 16 10s16-4.393 16-10v-4.977l-14.759 6.708a3 3 0 0 1 -2.484-.001z" fill="#c4a2fc"/><g fill="#151a6a"><path d="m35.5 1h-31a3 3 0 0 0 -3 3v42a3 3 0 0 0 3 3h31a3 3 0 0 0 3-3v-42a3 3 0 0 0 -3-3zm-30 46h-1a1 1 0 0 1 -1-1v-42a1 1 0 0 1 1-1h1zm31-1a1 1 0 0 1 -1 1h-28v-44h28a1 1 0 0 1 1 1z"/><path d="m17.5 11h9a1 1 0 0 0 0-2h-9a1 1 0 0 0 0 2z"/><path d="m29.5 38h-15a1 1 0 0 0 0 2h15a1 1 0 0 0 0-2z"/><path d="m29.5 30h-15a1 1 0 0 0 0 2h15a1 1 0 0 0 0-2z"/></g></svg>